# xmcd
#
# Track frame offsets: 
#        150
#        1338
#        20379
#        41937
#        71303
#        102866
#        133221
#        169964
#        210386
#        232974
#        257129
#        268340
#
# Disc length: 3887 seconds
#
# Revision: 0
# Processed by: cddbd v1.5.2PL0 Copyright (c) Steve Scherf et al.
# Submitted via: ExactAudioCopy v0.95a3
#
DISCID=a60f2d0c
DTITLE=Johnny Winter - Live Bootleg Series Vol.1
DYEAR=1900
DGENRE=Blues
TTITLE0=01. Introduction
TTITLE1=02. Johnny B. Goode
TTITLE2=03. Messin' with the Kid
TTITLE3=04. Help Me
TTITLE4=05. Hideaway
TTITLE5=06. Come on in My Kitchen
TTITLE6=07. Rollin' and Tumblin'
TTITLE7=08. Stranger
TTITLE8=09. Jumpin' Jack Flash
TTITLE9=10. Bony Moronie
TTITLE10=11. Closing
TTITLE11=12. It's All Over Now
EXTD=
EXTT0=
EXTT1=
EXTT2=
EXTT3=
EXTT4=
EXTT5=
EXTT6=
EXTT7=
EXTT8=
EXTT9=
EXTT10=
EXTT11=
PLAYORDER=
